<svg id="visual" viewBox="0 0 960 540" width="960" height="540" xmlns="http://www.w3.org/2000/svg" xmlns:xlink="http://www.w3.org/1999/xlink" version="1.1"><rect x="0" y="0" width="960" height="540" fill="#FBFACD"></rect><path d="M0 334L22.8 341.2C45.7 348.3 91.3 362.7 137 363C182.7 363.3 228.3 349.7 274 351C319.7 352.3 365.3 368.7 411.2 371.5C457 374.3 503 363.7 548.8 363.8C594.7 364 640.3 375 686 370.7C731.7 366.3 777.3 346.7 823 344.2C868.7 341.7 914.3 356.3 937.2 363.7L960 371L960 541L937.2 541C914.3 541 868.7 541 823 541C777.3 541 731.7 541 686 541C640.3 541 594.7 541 548.8 541C503 541 457 541 411.2 541C365.3 541 319.7 541 274 541C228.3 541 182.7 541 137 541C91.3 541 45.7 541 22.8 541L0 541Z" fill="#ba94d1"></path><path d="M0 400L22.8 404.5C45.7 409 91.3 418 137 418.5C182.7 419 228.3 411 274 410.2C319.7 409.3 365.3 415.7 411.2 408.7C457 401.7 503 381.3 548.8 374C594.7 366.7 640.3 372.3 686 382.3C731.7 392.3 777.3 406.7 823 412.7C868.7 418.7 914.3 416.3 937.2 415.2L960 414L960 541L937.2 541C914.3 541 868.7 541 823 541C777.3 541 731.7 541 686 541C640.3 541 594.7 541 548.8 541C503 541 457 541 411.2 541C365.3 541 319.7 541 274 541C228.3 541 182.7 541 137 541C91.3 541 45.7 541 22.8 541L0 541Z" fill="#ab88c4"></path><path d="M0 395L22.8 395.2C45.7 395.3 91.3 395.7 137 406C182.7 416.3 228.3 436.7 274 444C319.7 451.3 365.3 445.7 411.2 435.2C457 424.7 503 409.3 548.8 401.8C594.7 394.3 640.3 394.7 686 401.5C731.7 408.3 777.3 421.7 823 422.7C868.7 423.7 914.3 412.3 937.2 406.7L960 401L960 541L937.2 541C914.3 541 868.7 541 823 541C777.3 541 731.7 541 686 541C640.3 541 594.7 541 548.8 541C503 541 457 541 411.2 541C365.3 541 319.7 541 274 541C228.3 541 182.7 541 137 541C91.3 541 45.7 541 22.8 541L0 541Z" fill="#9c7db7"></path><path d="M0 433L22.8 433.5C45.7 434 91.3 435 137 436C182.7 437 228.3 438 274 446C319.7 454 365.3 469 411.2 475.7C457 482.3 503 480.7 548.8 474.2C594.7 467.7 640.3 456.3 686 456C731.7 455.7 777.3 466.3 823 470.8C868.7 475.3 914.3 473.7 937.2 472.8L960 472L960 541L937.2 541C914.3 541 868.7 541 823 541C777.3 541 731.7 541 686 541C640.3 541 594.7 541 548.8 541C503 541 457 541 411.2 541C365.3 541 319.7 541 274 541C228.3 541 182.7 541 137 541C91.3 541 45.7 541 22.8 541L0 541Z" fill="#8d71aa"></path><path d="M0 488L22.8 489.7C45.7 491.3 91.3 494.7 137 498.2C182.7 501.7 228.3 505.3 274 503.8C319.7 502.3 365.3 495.7 411.2 496.3C457 497 503 505 548.8 505C594.7 505 640.3 497 686 497.3C731.7 497.7 777.3 506.3 823 505C868.7 503.7 914.3 492.3 937.2 486.7L960 481L960 541L937.2 541C914.3 541 868.7 541 823 541C777.3 541 731.7 541 686 541C640.3 541 594.7 541 548.8 541C503 541 457 541 411.2 541C365.3 541 319.7 541 274 541C228.3 541 182.7 541 137 541C91.3 541 45.7 541 22.8 541L0 541Z" fill="#7f669d"></path></svg>